<svg height="512" viewBox="0 0 512 512" width="512" xmlns="http://www.w3.org/2000/svg"><path d="m44 100h29.333v312h-29.333z" fill="#ffdc37"/><path d="m73.333 100h26.667v312h-26.667z" fill="#fabe19"/><path d="m100 100h29.333v312h-29.333z" fill="#f5871e"/><path d="m86.667 412v48h-10.667l-32-48z" fill="#fab991"/><path d="m86.667 412v48h10.666l32-48z" fill="#f0915a"/><path d="m76 460 7.338 11.008a4 4 0 0 0 6.657 0l7.338-11.008z" fill="#353744"/><path d="m44 76h85.333v24h-85.333z" fill="#aac3d7"/><path d="m44 76h42.667v24h-42.667z" fill="#d7e6e6"/><path d="m60 36h53.333a16 16 0 0 1 16 16v24a0 0 0 0 1 0 0h-85.333a0 0 0 0 1 0 0v-24a16 16 0 0 1 16-16z" fill="#353744"/><path d="m60 36h26.667a0 0 0 0 1 0 0v40a0 0 0 0 1 0 0h-42.667a0 0 0 0 1 0 0v-24a16 16 0 0 1 16-16z" fill="#55525b"/><rect fill="#d7322d" height="336" rx="16" width="304" x="164" y="36"/><rect fill="#f04b37" height="336" rx="16" width="288" x="164" y="36"/><rect fill="#d7322d" height="336" rx="16" width="224" x="164" y="36"/><rect fill="#f04b37" height="336" rx="16" width="208" x="164" y="36"/><path d="m388 60h32a8 8 0 0 1 8 8v272a8 8 0 0 1 -8 8h-32a0 0 0 0 1 0 0v-288a0 0 0 0 1 0 0z" fill="#d7e6f0"/><rect fill="#d7322d" height="96" rx="16" width="144" x="196" y="68"/><path d="m456.686 476h-276.686a16 16 0 0 1 -16-16v-276.687a11.314 11.314 0 0 1 19.314-8l281.372 281.374a11.311 11.311 0 0 1 3.314 8 11.313 11.313 0 0 1 -11.314 11.313zm-228.686-165.49v101.49h101.49z" fill="#6478b9"/><path d="m196 476h-16a16 16 0 0 1 -16-16v-276.687a11.314 11.314 0 0 1 19.314-8l12.686 12.687z" fill="#6ea5d7"/><g fill="#4b55a5"><path d="m164 428h8a8 8 0 0 1 8 8 8 8 0 0 1 -8 8h-8a0 0 0 0 1 0 0v-16a0 0 0 0 1 0 0z"/><path d="m164 380h8a8 8 0 0 1 8 8 8 8 0 0 1 -8 8h-8a0 0 0 0 1 0 0v-16a0 0 0 0 1 0 0z"/><path d="m164 332h8a8 8 0 0 1 8 8 8 8 0 0 1 -8 8h-8a0 0 0 0 1 0 0v-16a0 0 0 0 1 0 0z"/><path d="m164 284h8a8 8 0 0 1 8 8 8 8 0 0 1 -8 8h-8a0 0 0 0 1 0 0v-16a0 0 0 0 1 0 0z"/><path d="m164 236h8a8 8 0 0 1 8 8 8 8 0 0 1 -8 8h-8a0 0 0 0 1 0 0v-16a0 0 0 0 1 0 0z"/></g></svg>